<?xml version="1.0" encoding="UTF-8"?>
<svg width="10px" height="18px" viewBox="0 0 10 18" version="1.1" xmlns="http://www.w3.org/2000/svg" xmlns:xlink="http://www.w3.org/1999/xlink">
    <!-- Generator: Sketch 46.1 (44463) - http://www.bohemiancoding.com/sketch -->
    <title>phone</title>
    <desc>Created with Sketch.</desc>
    <defs></defs>
    <g id="XL" stroke="none" stroke-width="1" fill="none" fill-rule="evenodd">
        <g id="Home-XL" transform="translate(-1277.000000, -2155.000000)" fill="#867A8A">
            <g id="Footer" transform="translate(-1.000000, 2064.000000)">
                <g id="Contacts-Info" transform="translate(1276.000000, 90.000000)">
                    <path d="M3.77952834,15.7110403 L10.2202735,15.7110403 L10.2202735,3.54515478 L3.77952834,3.54515478 L3.77952834,15.7110403 Z M7.00009909,18.0826009 C6.69916766,18.0826009 6.45550931,17.8384375 6.45550931,17.5373027 C6.45550931,17.2359694 6.69916766,16.9918061 7.00009909,16.9918061 C7.30063417,16.9918061 7.54449069,17.2359694 7.54449069,17.5373027 C7.54449069,17.8384375 7.30063417,18.0826009 7.00009909,18.0826009 L7.00009909,18.0826009 Z M11.5048553,1 L2.49514467,1 C2.22156163,1 2,1.22183134 2,1.49586996 L2,18.50413 C2,18.7780694 2.22156163,19 2.49514467,19 L11.5048553,19 C11.7784384,19 12,18.7780694 12,18.50413 L12,1.49586996 C12,1.22183134 11.7784384,1 11.5048553,1 L11.5048553,1 Z" id="phone"></path>
                </g>
            </g>
        </g>
    </g>
</svg>