<?xml version="1.0" encoding="UTF-8"?>
<svg width="21px" height="17px" viewBox="0 0 21 17" version="1.1" xmlns="http://www.w3.org/2000/svg" xmlns:xlink="http://www.w3.org/1999/xlink">
    <!-- Generator: Sketch 46.1 (44463) - http://www.bohemiancoding.com/sketch -->
    <title>photo</title>
    <desc>Created with Sketch.</desc>
    <defs></defs>
    <g id="XL" stroke="none" stroke-width="1" fill="none" fill-rule="evenodd">
        <g id="Home-XL" transform="translate(-1102.000000, -831.000000)" fill-rule="nonzero" fill="#FFFFFF">
            <g id="Photo" transform="translate(980.000000, 753.000000)">
                <g id="Type-icon" transform="translate(104.513672, 67.296875)">
                    <g id="photo" transform="translate(18.000000, 11.000000)">
                        <path d="M16.6666016,5.85902344 C16.2066016,5.85902344 15.8332813,6.23234375 15.8332813,6.69234375 C15.8332813,7.15234375 16.2066016,7.52566406 16.6666016,7.52566406 C17.1266016,7.52566406 17.4999219,7.15234375 17.4999219,6.69234375 C17.4999219,6.23234375 17.1266016,5.85902344 16.6666016,5.85902344 Z" id="Shape"></path>
                        <path d="M9.99992188,4.19238281 C7.2421875,4.19238281 4.99992188,6.43464844 4.99992188,9.19238281 C4.99992188,11.9501172 7.2421875,14.1923828 9.99992188,14.1923828 C12.7576563,14.1923828 14.9999219,11.9501172 14.9999219,9.19238281 C14.9999219,6.43464844 12.7576563,4.19238281 9.99992188,4.19238281 Z M9.99992187,12.5257031 C8.16265625,12.5257031 6.66660156,11.0296484 6.66660156,9.19238281 C6.66660156,7.35511719 8.16265625,5.8590625 9.99992187,5.8590625 C11.8371875,5.8590625 13.3332422,7.35511719 13.3332422,9.19238281 C13.3332422,11.0296484 11.8371875,12.5257031 9.99992187,12.5257031 Z" id="Shape"></path>
                        <path d="M17.56,3.359375 L16.6575,3.359375 C16.5557813,3.359375 16.4665625,3.2896875 16.4417969,3.19058594 L16.0084766,1.45652344 C15.7982422,0.615507812 15.0424609,0.0260546875 14.1758203,0.0260546875 L5.82417969,0.0260546875 C4.95757812,0.0260546875 4.20179687,0.615507812 3.9915625,1.45644531 L3.55820313,3.19070312 C3.5334375,3.2896875 3.44421875,3.359375 3.3425,3.359375 L2.44,3.359375 C1.09226563,3.359375 0,4.45164062 0,5.799375 L0,14.251875 C0,15.5996484 1.09230469,16.6926953 2.44,16.6926953 L17.56,16.6926953 C18.9076953,16.6926953 20,15.5996094 20,14.251875 L20,5.799375 C20,4.45164062 18.9077344,3.359375 17.56,3.359375 Z M18.3333203,14.251875 C18.3333203,14.6794141 17.9869531,15.0260547 17.56,15.0260547 L2.44,15.0260547 C2.01304688,15.0260547 1.66667969,14.6794531 1.66667969,14.251875 L1.66667969,5.799375 C1.66667969,5.37210937 2.01273438,5.02605469 2.44,5.02605469 L3.3425,5.02605469 C4.20914062,5.02605469 4.96488281,4.43574219 5.17511719,3.59484375 L5.60847656,1.86058594 C5.633125,1.76203125 5.72199219,1.69273437 5.82417969,1.69273437 L14.1758594,1.69273437 C14.2780469,1.69273437 14.3669141,1.76203125 14.3915625,1.86066406 L14.8248828,3.59472656 C15.0351172,4.43570312 15.7908984,5.02605469 16.6575391,5.02605469 L17.5600391,5.02605469 C17.9873047,5.02605469 18.3333594,5.37210937 18.3333594,5.799375 L18.3333594,14.251875 L18.3333203,14.251875 Z" id="Shape"></path>
                    </g>
                </g>
            </g>
        </g>
    </g>
</svg>