<?xml version="1.0" encoding="UTF-8"?>
<svg width="15px" height="16px" viewBox="0 0 15 16" version="1.1" xmlns="http://www.w3.org/2000/svg" xmlns:xlink="http://www.w3.org/1999/xlink">
    <!-- Generator: Sketch 46.1 (44463) - http://www.bohemiancoding.com/sketch -->
    <title>pin</title>
    <desc>Created with Sketch.</desc>
    <defs></defs>
    <g id="XL" stroke="none" stroke-width="1" fill="none" fill-rule="evenodd">
        <g id="Home-XL" transform="translate(-1275.000000, -2261.000000)" fill-rule="nonzero" fill="#867A8A">
            <g id="Footer" transform="translate(-1.000000, 2064.000000)">
                <g id="Contacts-Info" transform="translate(1276.000000, 90.000000)">
                    <g id="pin" transform="translate(0.000000, 107.000000)">
                        <path d="M14.6229688,15.070625 L12.9087813,11.070625 C12.8039688,10.8255 12.56275,10.6666562 12.2961563,10.6666562 L9.3721875,10.6666562 L11.4515,6.88215625 C11.8170625,6.2050625 12.0104063,5.439125 12.0104063,4.66665625 C12.0104063,2.0934375 9.917,0 7.34375,0 C4.7705,0 2.67709375,2.0934375 2.67709375,4.66665625 C2.67709375,5.439125 2.87046875,6.2050625 3.2373125,6.88409375 L5.3154375,10.6666562 L2.39134375,10.6666562 C2.12475,10.6666562 1.88353125,10.8255 1.77871875,11.070625 L0.06453125,15.070625 C-0.024,15.2766875 -0.00284375,15.5133437 0.12053125,15.7001875 C0.24390625,15.887375 0.45321875,16 0.6771875,16 L14.0104063,16 C14.234375,16 14.4436875,15.887375 14.5670625,15.7001875 C14.690375,15.5133438 14.7115313,15.2766875 14.6229688,15.070625 Z M4.67709375,4.66665625 C4.67709375,3.19628125 5.873375,2 7.34375,2 C8.814125,2 10.0104062,3.19628125 10.0104062,4.66665625 C10.0104062,6.13703125 8.814125,7.3333125 7.34375,7.3333125 C5.873375,7.3333125 4.67709375,6.13703125 4.67709375,4.66665625 Z M1.68821875,14.6666563 L2.83078125,12 L6.04790625,12 L7.05171875,13.8271562 C7.11,13.9339375 7.22196875,14 7.34371875,14 C7.46546875,14 7.5774375,13.9339062 7.63571875,13.8271562 L8.63959375,12 L11.8566875,12 L12.9992812,14.6666562 L1.68821875,14.6666562 L1.68821875,14.6666563 Z"></path>
                    </g>
                </g>
            </g>
        </g>
    </g>
</svg>