<?xml version="1.0" encoding="UTF-8"?>
<svg width="18px" height="18px" viewBox="0 0 18 18" version="1.1" xmlns="http://www.w3.org/2000/svg" xmlns:xlink="http://www.w3.org/1999/xlink">
    <!-- Generator: Sketch 46.1 (44463) - http://www.bohemiancoding.com/sketch -->
    <title>search</title>
    <desc>Created with Sketch.</desc>
    <defs></defs>
    <g id="XL" stroke="none" stroke-width="1" fill="none" fill-rule="evenodd">
        <g id="Home-XL" transform="translate(-1384.000000, -89.000000)" fill-rule="nonzero" fill="#2F2732">
            <g id="Header" transform="translate(-171.000000, -365.000000)">
                <g id="Top-nav" transform="translate(887.000000, 430.000000)">
                    <g id="Search" transform="translate(668.000000, 24.000000)">
                        <path d="M17.7795918,16.7216327 L13.4522449,12.3942857 C14.524898,11.0865306 15.1714286,9.41142857 15.1714286,7.58571429 C15.1714286,3.39795918 11.7734694,0 7.58571429,0 C3.39428571,0 0,3.39795918 0,7.58571429 C0,11.7734694 3.39428571,15.1714286 7.58571429,15.1714286 C9.41142857,15.1714286 11.0828571,14.5285714 12.3906122,13.4559184 L16.7179592,17.7795918 C17.0118367,18.0734694 17.4857143,18.0734694 17.7795918,17.7795918 C18.0734694,17.4893878 18.0734694,17.0118367 17.7795918,16.7216327 Z M7.58571429,13.6616327 C4.23183673,13.6616327 1.50612245,10.9359184 1.50612245,7.58571429 C1.50612245,4.2355102 4.23183673,1.50612245 7.58571429,1.50612245 C10.9359184,1.50612245 13.6653061,4.2355102 13.6653061,7.58571429 C13.6653061,10.9359184 10.9359184,13.6616327 7.58571429,13.6616327 Z" id="search"></path>
                    </g>
                </g>
            </g>
        </g>
    </g>
</svg>