<?xml version="1.0" encoding="UTF-8"?>
<svg width="65px" height="65px" viewBox="0 0 65 65" version="1.1" xmlns="http://www.w3.org/2000/svg" xmlns:xlink="http://www.w3.org/1999/xlink">
    <!-- Generator: Sketch 46.1 (44463) - http://www.bohemiancoding.com/sketch -->
    <title>Shape</title>
    <desc>Created with Sketch.</desc>
    <defs></defs>
    <g id="XL" stroke="none" stroke-width="1" fill="none" fill-rule="evenodd">
        <g id="Home-XL" transform="translate(-389.000000, -67.000000)" fill-rule="nonzero" fill="#474CA6">
            <g id="Header" transform="translate(-171.000000, -365.000000)">
                <g id="Logo" transform="translate(560.000000, 432.000000)">
                    <g id="worldwide">
                        <path d="M64.9276136,31.0227273 C64.1727273,14.2586364 50.7428409,0.830227273 33.9772727,0.0753409091 L33.9772727,0 L31.0227273,0 L31.0227273,0.0753409091 C14.2571591,0.830227273 0.827272727,14.2586364 0.0723863636,31.0227273 L0,31.0227273 L0,33.9772727 L0.0723863636,33.9772727 C0.827272727,50.7413636 14.2571591,64.1697727 31.0227273,64.9246591 L31.0227273,65 L33.9772727,65 L33.9772727,64.9246591 C50.7428409,64.1697727 64.1727273,50.7413636 64.9276136,33.9772727 L65,33.9772727 L65,31.0227273 L64.9276136,31.0227273 Z M27.4669318,3.41545455 C23.0971591,6.18238636 19.4128409,10.1459091 16.7153409,14.7727273 L8.89761364,14.7727273 C13.3235227,8.89022727 19.9003409,4.71545455 27.4669318,3.41545455 Z M6.97125,17.7272727 L15.1760227,17.7272727 C13.2496591,21.8651136 12.07375,26.3988636 11.8684091,31.0227273 L3.02102273,31.0227273 C3.26034091,26.1876136 4.68295455,21.6745455 6.97125,17.7272727 Z M3.02102273,33.9772727 L11.8669318,33.9772727 C12.07375,38.6011364 13.2496591,43.1348864 15.1745455,47.2727273 L6.97125,47.2727273 C4.68295455,43.3254545 3.26034091,38.8123864 3.02102273,33.9772727 Z M8.89761364,50.2272727 L16.7138636,50.2272727 C19.4113636,54.8540909 23.0956818,58.8176136 27.4654545,61.5845455 C19.9003409,60.2845455 13.3235227,56.1097727 8.89761364,50.2272727 Z M31.0227273,60.2535227 C26.6647727,58.0568182 22.9376136,54.5084091 20.1514773,50.2272727 L31.0227273,50.2272727 L31.0227273,60.2535227 Z M31.0227273,47.2727273 L18.4348864,47.2727273 C16.3401136,43.1821591 15.0519318,38.6129545 14.8244318,33.9772727 L31.0227273,33.9772727 L31.0227273,47.2727273 Z M31.0227273,31.0227273 L14.8244318,31.0227273 C15.0519318,26.3870455 16.3401136,21.8178409 18.4348864,17.7272727 L31.0227273,17.7272727 L31.0227273,31.0227273 Z M31.0227273,14.7727273 L20.1514773,14.7727273 C22.9376136,10.4915909 26.6647727,6.94318182 31.0227273,4.74647727 L31.0227273,14.7727273 Z M56.1023864,14.7727273 L48.3171591,14.7727273 C45.6565909,10.1739773 42.0269318,6.22375 37.7236364,3.44352273 C45.2104545,4.78045455 51.7134091,8.93602273 56.1023864,14.7727273 Z M33.9772727,4.66375 C38.3544318,6.87522727 42.0919318,10.4546591 44.8839773,14.7727273 L33.9772727,14.7727273 L33.9772727,4.66375 Z M33.9772727,17.7272727 L46.5857955,17.7272727 C48.6672727,21.8207955 49.9480682,26.3885227 50.1755682,31.0227273 L33.9772727,31.0227273 L33.9772727,17.7272727 Z M33.9772727,33.9772727 L50.1755682,33.9772727 C49.9495455,38.6114773 48.6672727,43.1792045 46.5857955,47.2727273 L33.9772727,47.2727273 L33.9772727,33.9772727 Z M33.9772727,50.2272727 L44.8839773,50.2272727 C42.0919318,54.5453409 38.3544318,58.1247727 33.9772727,60.33625 L33.9772727,50.2272727 Z M37.7236364,61.5564773 C42.0269318,58.77625 45.6565909,54.8260227 48.3171591,50.2272727 L56.1023864,50.2272727 C51.7134091,56.0639773 45.2104545,60.2195455 37.7236364,61.5564773 Z M58.0317045,47.2727273 L49.8476136,47.2727273 C51.7606818,43.1319318 52.9277273,38.5996591 53.1330682,33.9772727 L61.9789773,33.9772727 C61.7396591,38.8123864 60.3185227,43.3254545 58.0317045,47.2727273 Z M53.1330682,31.0227273 C52.9277273,26.4003409 51.7606818,21.8680682 49.8476136,17.7272727 L58.0317045,17.7272727 C60.3185227,21.6745455 61.7396591,26.1876136 61.9789773,31.0227273 L53.1330682,31.0227273 Z" id="Shape"></path>
                    </g>
                </g>
            </g>
        </g>
    </g>
</svg>