<?xml version="1.0" encoding="UTF-8"?><!DOCTYPE svg PUBLIC "-//W3C//DTD SVG 1.1//EN" "http://www.w3.org/Graphics/SVG/1.1/DTD/svg11.dtd"><svg xmlns="http://www.w3.org/2000/svg"><symbol id="arrow-long" viewBox="0 0 16 12"><title>arrow-long</title><path d="M10.602.503a.556.556 0 0 0-.793 0 .56.56 0 0 0 0 .786l4.024 4.024H.556A.553.553 0 0 0 0 5.869c0 .309.246.563.555.563h13.277L9.81 10.448a.57.57 0 0 0 0 .793c.222.223.58.223.793 0l4.976-4.975a.546.546 0 0 0 0-.786L10.602.503z" fill-rule="nonzero" fill="#1E201D"/></symbol><symbol id="arrow-small" viewBox="0 0 6 10"><title>arrow-small</title><path d="M1.12 0L.02 1.1l3.614 3.614L.02 8.33l1.1 1.1 4.714-4.715z" fill-rule="nonzero" fill="#390050"/></symbol><symbol id="arrow" viewBox="0 0 11 7"><title>arrow</title><path d="M11 1.307L9.717.023 5.5 4.24 1.283.023 0 1.307l5.5 5.5z" fill-rule="nonzero" fill="#9B8EA0"/></symbol><symbol id="email" viewBox="0 0 14 13"><title>email</title></symbol><symbol id="phone" viewBox="0 0 10 18"><title>phone</title><path d="M1.78 14.711h6.44V2.545H1.78v12.166zM5 17.083a.545.545 0 1 1 0-1.09.545.545 0 0 1 0 1.09zM9.505 0H.495A.495.495 0 0 0 0 .496v17.008c0 .274.222.496.495.496h9.01a.495.495 0 0 0 .495-.496V.496A.495.495 0 0 0 9.505 0z" fill="#867A8A" fill-rule="evenodd"/></symbol><symbol id="photo" viewBox="0 0 21 17"><title>photo</title><g fill-rule="nonzero" fill="#FFF"><path d="M17.18 6.156a.834.834 0 1 0 0 1.667.834.834 0 0 0 0-1.667zM10.514 4.49c-2.758 0-5 2.242-5 5 0 2.757 2.242 5 5 5 2.757 0 5-2.243 5-5 0-2.758-2.243-5-5-5zm0 8.333A3.338 3.338 0 0 1 7.18 9.489a3.338 3.338 0 0 1 3.334-3.333 3.338 3.338 0 0 1 3.333 3.333 3.338 3.338 0 0 1-3.333 3.334z"/><path d="M18.074 3.656h-.903a.223.223 0 0 1-.216-.169l-.433-1.734A1.889 1.889 0 0 0 14.69.323H6.338c-.867 0-1.623.59-1.833 1.43l-.433 1.735a.223.223 0 0 1-.216.168h-.902a2.44 2.44 0 0 0-2.44 2.44v8.453a2.44 2.44 0 0 0 2.44 2.44h15.12a2.44 2.44 0 0 0 2.44-2.44V6.096a2.44 2.44 0 0 0-2.44-2.44zm.773 10.893a.774.774 0 0 1-.773.774H2.954a.774.774 0 0 1-.774-.774V6.096c0-.427.346-.773.774-.773h.902A1.89 1.89 0 0 0 5.69 3.892l.433-1.735a.222.222 0 0 1 .216-.167h8.352c.102 0 .19.069.215.168l.434 1.734a1.89 1.89 0 0 0 1.832 1.43h.903c.427 0 .773.347.773.774v8.453z"/></g></symbol><symbol id="pin" viewBox="0 0 15 16"><title>pin</title><path d="M14.623 15.07l-1.714-4a.666.666 0 0 0-.613-.403H9.372l2.08-3.785a4.677 4.677 0 0 0 .558-2.215A4.672 4.672 0 0 0 7.344 0a4.672 4.672 0 0 0-4.667 4.667c0 .772.193 1.538.56 2.217l2.078 3.783H2.391a.666.666 0 0 0-.612.404l-1.714 4A.666.666 0 0 0 .677 16H14.01a.667.667 0 0 0 .613-.93zM4.677 4.668A2.67 2.67 0 0 1 7.344 2a2.67 2.67 0 0 1 2.666 2.667 2.67 2.67 0 0 1-2.666 2.666 2.67 2.67 0 0 1-2.667-2.666zm-2.989 10L2.831 12h3.217l1.004 1.827a.332.332 0 0 0 .584 0L8.64 12h3.217l1.142 2.667H1.69z" fill-rule="nonzero" fill="#867A8A"/></symbol><symbol id="search" viewBox="0 0 18 18"><title>search</title><path d="M17.78 16.722l-4.328-4.328A7.588 7.588 0 0 0 7.585 0a7.586 7.586 0 1 0 0 15.171 7.546 7.546 0 0 0 4.806-1.715l4.327 4.324a.75.75 0 0 0 1.062-1.058zm-10.194-3.06a6.084 6.084 0 0 1-6.08-6.076c0-3.35 2.726-6.08 6.08-6.08a6.09 6.09 0 0 1 6.08 6.08c0 3.35-2.73 6.076-6.08 6.076z" fill-rule="nonzero"/></symbol><symbol id="worldwide" viewBox="0 0 65 65"><title>Shape</title><path d="M64.928 31.023C64.173 14.259 50.743.83 33.978.075V0h-2.955v.075C14.257.83.827 14.26.073 31.023H0v2.954h.072c.755 16.764 14.185 30.193 30.95 30.948V65h2.955v-.075c16.766-.755 30.196-14.184 30.95-30.948H65v-2.954h-.072zM27.467 3.415c-4.37 2.767-8.054 6.73-10.752 11.358H8.898C13.324 8.89 19.9 4.715 27.467 3.415zM6.97 17.727h8.205c-1.926 4.138-3.102 8.672-3.308 13.296H3.021a29.334 29.334 0 0 1 3.95-13.296zm-3.95 16.25h8.846c.207 4.624 1.383 9.158 3.308 13.296H6.97a29.334 29.334 0 0 1-3.95-13.296zm5.877 16.25h7.816c2.697 4.627 6.382 8.59 10.751 11.358-7.565-1.3-14.141-5.475-18.567-11.358zm22.125 10.027c-4.358-2.197-8.085-5.746-10.872-10.027h10.872v10.027zm0-12.981H18.435c-2.095-4.09-3.383-8.66-3.61-13.296h16.198v13.296zm0-16.25H14.824c.228-4.636 1.516-9.205 3.61-13.296h12.589v13.296zm0-16.25H20.15c2.787-4.281 6.514-7.83 10.872-10.027v10.027zm25.08 0h-7.786c-2.66-4.599-6.29-8.55-10.593-11.33 7.486 1.337 13.99 5.493 18.378 11.33zM33.976 4.663c4.377 2.212 8.115 5.792 10.907 10.11H33.977V4.663zm0 13.064h12.609c2.081 4.094 3.362 8.662 3.59 13.296H33.977V17.727zm0 16.25h16.199c-.226 4.634-1.509 9.202-3.59 13.296H33.977V33.977zm0 16.25h10.907c-2.792 4.318-6.53 7.898-10.907 10.11v-10.11zm3.747 11.33c4.303-2.78 7.933-6.731 10.593-11.33h7.785c-4.389 5.837-10.892 9.993-18.378 11.33zm20.308-14.284h-8.184c1.913-4.141 3.08-8.673 3.285-13.296h8.846a29.35 29.35 0 0 1-3.947 13.296zm-4.899-16.25c-.205-4.623-1.372-9.155-3.285-13.296h8.184a29.35 29.35 0 0 1 3.947 13.296h-8.846z" fill-rule="nonzero" fill="#474CA6"/></symbol></svg>
