<svg version="1" xmlns="http://www.w3.org/2000/svg" width="933.333" height="933.333" viewBox="0 0 700.000000 700.000000"><path d="M334 .3c-.3.3-4.5.8-9.5 1.2-4.9.3-10.1.8-11.5 1-1.4.2-5.1.6-8.3 1-4.8.5-14.7 2.2-29.2 5-6.8 1.3-23.7 5.9-33.9 9.2-50 16.1-98.7 45.7-136 82.7-19.4 19.2-32.2 34.5-45.9 54.9-6.9 10.4-6.7 10-16 26.6C23.4 218 8.2 264.4 3.5 304.5c-.3 2.7-.8 6.3-1 8-2.6 17-2.6 62.8 0 74.9.2 1.1.7 4.3 1 7.1 1.2 11.5 3.9 26.1 7.9 42.7 8.7 35.2 27.4 77 48.3 107.5 15.1 22.1 25.4 34.5 44.8 53.8 11.1 11 14.4 14 26.1 23.6 29.3 24.2 68.4 45.7 106.8 58.8 10.2 3.5 34.5 10.1 42.4 11.6 1.4.2 4.8.9 7.6 1.4 5.8 1.2 10.6 1.9 17.4 2.6 2.6.3 6.1.7 7.7 1 19.8 2.6 58.9 2.7 74.5 0 1.4-.2 5-.7 8-1 15.4-1.7 46.7-8.3 55-11.5 1.4-.6 3.4-1.2 4.5-1.4 1.1-.2 7.8-2.5 14.8-5.1 89.6-32.6 163.3-101.6 201-188.5 7.6-17.5 17.4-46.8 20.1-60 .3-1.4.7-3.6 1-5 .3-1.4.8-3.6 1.1-5 1.5-6.8 3.3-18.1 4.1-24.3.2-2 .6-5.6.9-8 5.1-42 .8-92.1-11.4-133.9-17.1-58.3-46-107.5-88.1-149.9-32.8-32.9-69.4-57.8-111.5-75.6-26.2-11.2-58.7-20.4-83-23.8-2.3-.3-5.1-.7-6.4-1-1.2-.2-5.9-.7-10.4-1.1-4.5-.3-9.3-.8-10.7-1-4.2-.7-41.5-1.7-42-1.1zm-47.6 42.8c-22.2 15.5-44.1 34.9-63 55.9-12 13.3-29.4 37.1-40.2 54.7L180 159H95.8l4.2-5.3c10.6-13.3 27.6-31.3 40.6-42.9 19.4-17.3 49.7-37 74.4-48.5 21.1-9.8 50-19.6 67.9-22.9 1.3-.3 4-.9 6-1.3 6.7-1.6 6.4-1.1-2.5 5zM420 40c12.1 2.7 10.7 2.3 23 6.1 29.8 9 60.4 23.8 87 42 21.4 14.6 48.1 39 64 58.4 4.1 4.9 8.1 9.8 8.9 10.7 1.3 1.7-.7 1.8-40.6 1.8h-42l-5.3-8.8c-5-8.1-18.1-27.3-20.5-29.8-.5-.7-1.9-2.4-3-4-5.3-7.4-18.2-22.1-29.5-33.4-14-14-16.9-16.7-29-26.3-4.7-3.8-9.3-7.5-10.2-8.2-1-.8-4.4-3.2-7.5-5.2-3.2-2.1-6.5-4.4-7.3-5.2-1.2-1.2-1.1-1.3.5-.8 1.1.4 6.3 1.6 11.5 2.7zm-86 65v54H217l3.1-4.3c1.6-2.3 4.1-5.9 5.4-7.9 1.4-2.1 6.9-9.3 12.4-16 24.8-30.9 56.7-58.2 86.6-74.3 3.9-2.1 7.4-4.2 8-4.6.5-.5 1-.9 1.2-.9.2 0 .3 24.3.3 54zm40.9-49.8c12.3 6.8 36.6 23.4 42.7 29.3.6.5 3.9 3.4 7.3 6.4 11.8 10.3 31.2 30.7 37.6 39.5 1.6 2.3 3.2 4.3 3.5 4.6 1.5 1.4 13.6 18.1 16.4 22.7.6 1-11.3 1.3-57.8 1.3H366v-54c0-29.7.3-54 .6-54 .4 0 4.1 1.9 8.3 4.2zM163 191.5c0 .2-1.8 4.4-3.9 9.4-7.2 16.2-18.7 50.3-20.7 61.1-.3 1.4-1.3 6.1-2.4 10.5-1 4.4-2.1 9.8-2.4 12-.3 2.2-1 6.2-1.6 9-.5 2.7-1.1 6.8-1.4 9-1.7 13.9-2.3 21.1-2.5 28.3l-.1 3.2-47.7-.2c-31.2-.2-47.8-.6-47.7-1.3.1-.6.5-4.6.8-9 1.1-13.3 2.6-23.6 5.2-36.5.9-4.1 1.7-8.3 1.9-9.2 4.2-21 20.5-62.8 32.8-83.5l1.9-3.3h43.9c24.1 0 43.9.2 43.9.5zm171 71V334H159.8l.6-8.8c.8-11.7 2.5-25.4 4-31.8.2-1.2.7-3.7 1-5.5.8-5.4 3.6-18.1 4.1-18.8.2-.4.6-2 .9-3.5 2.3-13 14.2-45.7 23.8-65.9l4.2-8.7H334v71.5zm172.3-61.8c12.7 26.9 23.8 60.5 28.3 85.8.3 2.2.8 4.9 1 6 .3 1.1.9 5.4 1.5 9.5.5 4.1 1.2 8.6 1.4 10 .2 1.4.7 6.9 1 12.2l.7 9.8H366V191h135.7l4.6 9.7zm124.4.8c2.9 5.5 7.1 14.3 9.4 19.5 2.3 5.2 4.7 10.8 5.5 12.5 4.4 10 14.3 43.6 16 54.3.3 1.9.8 4.4 1 5.6 1.4 7.2 3.2 20.2 4 30.2.3 4.3.7 8.3.8 8.9.1.7-16.5 1.1-47.6 1.3l-47.8.2-.1-3.7c0-2.1-.2-5.2-.4-6.8-.2-1.7-.6-6.1-.9-9.9-.4-3.8-.8-7.8-1.1-9-.2-1.1-.6-4.1-.9-6.6-1.2-10-4.8-28.3-8.2-41-5.1-19.3-15.9-50-21.5-61.2-1.1-2.1-1.9-4-1.9-4.3 0-.3 19.9-.4 44.2-.3l44.1.3 5.4 10zM128.1 369.2c1.2 38 13.9 91.5 30.8 129.6 2.2 5.1 4.1 9.5 4.1 9.8 0 .2-19.9.3-44.2.2l-44.3-.3-8.2-16.5c-9.3-18.8-11.7-24.3-16.8-39-3.6-10.3-9.8-33.2-11-40-.3-1.9-.8-4.6-1-6-2.1-10.2-3-17-4-30-.8-9.4-.8-9.2-.6-10.3 0-.4 21.5-.7 47.6-.7H128l.1 3.2zM334 437.5V509H198.3l-5.6-12.3c-8-17.6-10.1-22.9-15.1-37.8-4.2-12.6-9.7-33.1-11.1-40.9-.3-1.9-1.2-6.7-2-10.5-1.7-8.9-3.3-21.5-4.1-32.8l-.6-8.7H334v71.5zm205.6-61.8c-2.6 39.8-15.5 86.8-34.6 126.5l-3.3 6.8H366V366h174.2l-.6 9.7zm127.8-8.2c-.1.5-.5 5-.9 9.9-.4 5-.8 9.7-1 10.5-.1.9-.6 3.8-.9 6.6-1.4 10-1.9 12.7-5.1 27.5-4.6 21.5-16.1 52-27.8 74.5l-6.3 12-44.2.3-44.2.2 1.6-3.7C544 492.7 549.7 478 553 468c3.3-10.1 9.7-32.4 10.5-36.9.3-2 1.8-9.4 2-10.1.1-.3.5-3 1-6s.9-5.7 1-6c.1-.3.5-2.8.9-5.5.4-2.8 1-6.1 1.2-7.5.2-1.4.7-5.9 1-10 .4-4.1.8-8.4.9-9.5.1-1.1.3-3.9.4-6.3l.1-4.2 47.8.2c31.1.2 47.7.6 47.6 1.3zM184.5 548c2.5 3.9 4.5 7.3 4.5 7.5 0 1.7 21.2 30.1 31.7 42.5 7.9 9.3 33.4 34.2 41.8 40.9 4.4 3.4 8.9 7.1 10.1 8.1 1.2.9 6.7 4.9 12.4 8.9 5.7 3.9 10 7.1 9.6 7.1-1.7 0-23.4-5-26.1-6-1.6-.6-3.1-1.1-3.3-1-.1.1-2.8-.6-6-1.5-3.1-1-6.4-1.9-7.2-2.1-2.3-.5-22-7.9-27-10.2-18.9-8.4-33.8-16.4-49.6-26.8-11-7.2-27.6-19.7-34.3-25.8-13.7-12.3-30.5-30.1-41.5-43.9l-3.8-4.7h84.1l4.6 7zM334 594.9v54l-8-4.4c-40-22.2-73.8-53.5-104.3-96.8l-4.8-6.7H334v53.9zm148.4-52.7c-2.9 4.9-17.6 25.1-19.4 26.8-.3.3-1.5 1.8-2.7 3.3-10.8 14-33.6 36.3-50.7 49.6-12.3 9.5-40.2 27.1-43 27.1-.3 0-.6-24.3-.6-54v-54h58.6c46.5 0 58.4.3 57.8 1.2zm117.6 4c-13.8 17.5-34.4 38.3-50.5 51.1-10.5 8.4-31.5 23-40 27.7-28.5 16-63.2 29.7-87.4 34.6-1.3.3-5.3 1.1-8.7 1.8-3.5.8-6.4 1.3-6.4 1.1 0-.1 2.6-1.9 5.8-4 38.4-25.9 76.4-66.3 102.2-108.8l5.3-8.7h83.9l-4.2 5.2z"/></svg>